<?xml version="1.0" encoding="UTF-8" standalone="no"?>
<svg
   xmlns:dc="http://purl.org/dc/elements/1.1/"
   xmlns:cc="http://creativecommons.org/ns#"
   xmlns:rdf="http://www.w3.org/1999/02/22-rdf-syntax-ns#"
   xmlns:svg="http://www.w3.org/2000/svg"
   xmlns="http://www.w3.org/2000/svg"
   viewBox="0 0 396.85333 396.85333"
   height="396.85333"
   width="396.85333"
   xml:space="preserve"
   id="svg2"
   version="1.1"><metadata
     id="metadata8"><rdf:RDF><cc:Work
         rdf:about=""><dc:format>image/svg+xml</dc:format><dc:type
           rdf:resource="http://purl.org/dc/dcmitype/StillImage" /></cc:Work></rdf:RDF></metadata><defs
     id="defs6" /><g
     transform="matrix(1.3333333,0,0,-1.3333333,0,396.85333)"
     id="g10"><g
       transform="scale(0.1)"
       id="g12"><path
         id="path14"
         style="fill:#00adef;fill-opacity:1;fill-rule:nonzero;stroke:none"
         d="m 1488.19,134.648 c -747.542,0 -1353.545,605.993 -1353.545,1353.542 0,747.54 606.003,1353.54 1353.545,1353.54 747.54,0 1353.54,-606 1353.54,-1353.54 0,-747.549 -606,-1353.542 -1353.54,-1353.542 z m 0,2770.872 C 705.426,2905.52 70.8633,2270.95 70.8633,1488.19 70.8633,705.43 705.426,70.8711 1488.19,70.8711 c 782.76,0 1417.32,634.5589 1417.32,1417.3189 0,782.76 -634.56,1417.33 -1417.32,1417.33" /><path
         id="path16"
         style="fill:#00adef;fill-opacity:1;fill-rule:nonzero;stroke:none"
         d="m 2227.6,1068.53 c -54,-0.47 -103.29,-20.23 -141.46,-52.66 l -155.9,133.15 c -13.35,11.41 -33.42,9.81 -44.8,-3.52 -11.4,-13.35 -9.81,-33.4 3.52,-44.81 l 155.1,-132.46 c -23.18,-35.378 -36.53,-77.761 -36.14,-123.23 1.07,-122.379 101.16,-220.738 223.54,-219.66 122.38,1.07 220.73,101.14 219.66,223.531 -1.06,122.379 -101.14,220.729 -223.52,219.659" /><path
         id="path18"
         style="fill:#00adef;fill-opacity:1;fill-rule:nonzero;stroke:none"
         d="m 1456.42,2075.25 v -220.59 c 0,-17.55 14.22,-31.78 31.77,-31.78 17.55,0 31.78,14.23 31.78,31.78 v 220.58 c 156.08,15.92 277.87,147.75 277.87,308.03 0,171.02 -138.63,309.64 -309.65,309.64 -171.01,0 -309.64,-138.62 -309.64,-309.64 0,-160.28 121.78,-292.11 277.87,-308.02" /><path
         id="path20"
         style="fill:#00adef;fill-opacity:1;fill-rule:nonzero;stroke:none"
         d="m 1911.61,1817.68 c 7.29,0 14.64,2.5 20.61,7.62 l 263.4,224.96 c 22.04,-16.54 49.54,-26.12 79.22,-25.34 69.94,1.83 125.15,60.01 123.31,129.94 -1.82,69.94 -60,125.15 -129.94,123.32 -69.93,-1.83 -125.14,-60.01 -123.31,-129.94 0.45,-17.23 4.35,-33.55 10.97,-48.35 l -264.92,-226.27 c -13.35,-11.4 -14.92,-31.45 -3.53,-44.8 6.28,-7.36 15.21,-11.14 24.19,-11.14" /><path
         id="path22"
         style="fill:#00adef;fill-opacity:1;fill-rule:nonzero;stroke:none"
         d="m 2178.42,1240.14 v 195.34 l 125.82,300.99 h -125.12 l -57.01,-184.21 h -1.39 l -55.61,184.21 h -129.29 l 125.82,-300.99 v -195.34 h 116.78" /><path
         id="path24"
         style="fill:#00adef;fill-opacity:1;fill-rule:nonzero;stroke:none"
         d="m 897.086,1407.32 c -2.555,-22.48 -6.727,-39.74 -12.516,-51.78 -5.797,-12.06 -13.324,-19.94 -22.59,-23.64 -9.277,-3.71 -20.628,-5.56 -34.058,-5.56 h -31.285 v 323.93 h 32.672 c 15.293,0 27.683,-2.32 37.191,-6.95 9.492,-4.64 16.793,-12.75 21.895,-24.33 5.097,-11.58 8.453,-27.35 10.082,-47.27 1.617,-19.93 2.429,-44.95 2.429,-75.07 0,-37.08 -1.277,-66.85 -3.82,-89.33 z m 30.238,316.98 c -20.855,8.11 -45.652,12.17 -74.379,12.17 h -173.09 v -496.33 h 161.274 c 38.457,0 69.269,5.33 92.449,15.99 23.168,10.66 41.012,26.87 53.527,48.66 12.508,21.78 20.735,49.24 24.675,82.38 3.93,33.12 5.91,72.17 5.91,117.13 0,43.1 -3.13,79.47 -9.38,109.13 -6.26,29.65 -16.115,53.53 -29.548,71.6 -13.446,18.07 -30.586,31.16 -51.438,39.27" /><path
         id="path26"
         style="fill:#00adef;fill-opacity:1;fill-rule:nonzero;stroke:none"
         d="m 1441.21,1334.68 h -177.96 v 113.31 h 159.88 v 94.54 h -159.88 v 99.4 h 170.31 v 94.54 h -287.09 v -496.33 h 294.74 v 94.54" /><path
         id="path28"
         style="fill:#00adef;fill-opacity:1;fill-rule:nonzero;stroke:none"
         d="m 1862.79,1458.76 c -10.43,17.84 -23.63,32.21 -39.62,43.1 -15.99,10.89 -33.14,19.7 -51.44,26.41 -18.31,6.72 -35.45,13.56 -51.44,20.51 -15.99,6.96 -29.2,15.3 -39.62,25.03 -10.43,9.73 -15.64,23.4 -15.64,41.01 0,35.68 15.52,53.53 46.57,53.53 16.69,0 28.5,-5.8 35.45,-17.38 6.49,-10.67 9.74,-28.05 9.74,-52.14 h 112.6 v 11.82 c 0,19 -2.77,36.72 -8.34,53.18 -5.56,16.44 -14.59,30.81 -27.1,43.1 -12.52,12.27 -28.85,21.89 -49.01,28.84 -20.16,6.96 -44.84,10.43 -74.03,10.43 -30.13,0 -55.5,-3.94 -76.12,-11.82 -20.62,-7.88 -37.43,-18.42 -50.4,-31.62 -12.98,-13.21 -22.24,-28.63 -27.8,-46.23 -5.56,-17.62 -8.35,-36.39 -8.35,-56.31 0,-31.05 5.22,-55.85 15.65,-74.38 10.42,-18.54 23.63,-33.48 39.62,-44.83 15.99,-11.36 33.13,-20.28 51.44,-26.76 18.3,-6.5 35.45,-13.21 51.44,-20.16 15.98,-6.95 29.19,-15.42 39.62,-25.38 10.43,-9.97 15.64,-23.75 15.64,-41.36 0,-6.95 -0.82,-14.02 -2.43,-21.2 -1.63,-7.19 -4.52,-13.55 -8.69,-19.12 -4.17,-5.56 -9.62,-10.07 -16.34,-13.55 -6.72,-3.48 -15.18,-5.22 -25.37,-5.22 -20.4,0 -33.95,6.26 -40.67,18.77 -6.72,12.52 -10.07,28.27 -10.07,47.27 v 17.38 h -112.62 v -31.97 c 0,-25.96 4.52,-47.27 13.56,-63.96 9.04,-16.68 21.08,-29.89 36.15,-39.62 15.05,-9.73 32.43,-16.44 52.13,-20.16 19.69,-3.7 40.2,-5.56 61.52,-5.56 26.87,0 50.75,2.9 71.6,8.69 20.85,5.79 38.58,15.05 53.18,27.81 14.59,12.74 25.72,29.07 33.36,49 7.65,19.92 11.47,44.02 11.47,72.3 0,29.2 -5.21,52.71 -15.64,70.55" /><path
         id="path30"
         style="fill:#00adef;fill-opacity:1;fill-rule:nonzero;stroke:none"
         d="m 745.559,1905.31 c 53.992,0.47 103.289,20.24 141.449,52.66 l 155.902,-133.15 c 13.35,-11.41 33.42,-9.81 44.8,3.53 11.4,13.35 9.81,33.4 -3.53,44.81 l -155.094,132.46 c 23.187,35.38 36.539,77.75 36.144,123.23 -1.074,122.38 -101.152,220.73 -223.535,219.66 -122.386,-1.08 -220.738,-101.14 -219.664,-223.54 1.059,-122.38 101.145,-220.72 223.528,-219.66" /><path
         id="path32"
         style="fill:#00adef;fill-opacity:1;fill-rule:nonzero;stroke:none"
         d="m 1066.53,1156.57 c -7.28,0 -14.63,-2.5 -20.61,-7.62 L 782.52,923.988 c -22.036,16.543 -49.54,26.114 -79.223,25.34 C 633.363,947.5 578.152,889.32 579.988,819.391 c 1.828,-69.942 60,-125.153 129.946,-123.321 69.925,1.828 125.14,60.008 123.312,129.942 -0.453,17.226 -4.355,33.539 -10.976,48.347 l 264.92,226.271 c 13.35,11.39 14.93,31.45 3.54,44.8 -6.29,7.36 -15.22,11.14 -24.2,11.14" /><path
         id="path34"
         style="fill:#00adef;fill-opacity:1;fill-rule:nonzero;stroke:none"
         d="m 1519.97,901.141 v 220.589 c 0,17.55 -14.23,31.77 -31.78,31.77 -17.54,0 -31.77,-14.22 -31.77,-31.77 V 901.141 c -156.09,-15.911 -277.87,-147.75 -277.87,-308.032 0,-171.007 138.63,-309.648 309.64,-309.648 171.02,0 309.65,138.641 309.65,309.648 0,160.282 -121.79,292.121 -277.87,308.032" /><path
         id="path36"
         style="fill:#f68512;fill-opacity:1;fill-rule:nonzero;stroke:none"
         d="m 2325.88,1337.36 c -11.85,-11.86 -17.77,-26.24 -17.77,-43.17 0,-16.94 5.92,-31.33 17.77,-43.17 11.85,-11.86 26.24,-17.77 43.17,-17.77 16.93,0 31.32,5.91 43.17,17.77 11.85,11.84 17.78,26.23 17.78,43.17 0,16.93 -5.93,31.31 -17.78,43.17 -11.85,11.84 -26.24,17.77 -43.17,17.77 -16.93,0 -31.32,-5.93 -43.17,-17.77" /></g></g></svg>